<?xml version="1.0" encoding="UTF-8"?>
<svg xmlns="http://www.w3.org/2000/svg" viewBox="0 0 64 64" width="64" height="64" aria-hidden="true">
  <title>Safari pinned tab (mask)</title>
  <desc>Monochrome mask icon for Safari pinned tabs. Uses a simplified dolphin for legibility.</desc>
  <g fill="#000" stroke="#000" stroke-width="0">
    <path d="M50.4 24.2c-1.1-5.7-6.4-10.2-14.2-11.3-7.9-1.1-14 1.1-17.8 5.6-4 4.9-4.4 11.1-1.4 16.1 0.9 1.5 0.2 3.8-1.8 4.5-1.3 0.5-1.9 2-1.1 3.2 1.1 1.4 3.2 2.4 6 1 2-1 4.1-2.8 5.5-5 2.5 1.5 5.6 2.5 8.9 2.9 3.3 0.4 6.6 0.1 9.4-0.7 0.6 1.5 1.9 3.2 3.7 4 2.4 1.2 5 0.3 6-1.9 0.6-1.4 0.1-2.9-1.2-3.9-1.2-0.9-2.6-1.5-3.8-2 1.4-3 1.8-6.2 1-9.6zM26 24.5c1.6 0 3.1 1.3 3.1 3s-1.4 3-3.1 3-3.1-1.3-3.1-3 1.4-3 3.1-3z"/>
    <path d="M20 39c4 2 9 2.5 14 1.6" fill="none" stroke="#000" stroke-width="2" stroke-linecap="round"/>
  </g>
</svg>
